# xmcd CD database file
#
# Track frame offsets:
#	182
#	14185
#	29697
#	38567
#	56957
#	72897
#	84492
#	97670
#	116150
#	126560
#	148337
#	162187
#
# Disc length: 2351 seconds
#
# Revision: 4
# Processed by: cddbd v1.5PL3 Copyright (c) Steve Scherf et al.
# Submitted via: CDex 1.51
#
DISCID=b0092d0c
DTITLE=Betsy Pecanins - Tequila Blues (El Efecto Tequila)
DYEAR=1996
DGENRE=Jazz
TTITLE0=No me amenaces
TTITLE1=Fallaste corazón
TTITLE2=Ya llego el ausente
TTITLE3=La chancla
TTITLE4=Amanecí en tus brazos
TTITLE5=Los tarzanes
TTITLE6=Arrieros somos
TTITLE7=Por un amor
TTITLE8=Libro abierto
TTITLE9=Un mundo raro
TTITLE10=La tequilera
TTITLE11=Continuo sufrimiento
EXTD=YEAR: 1996
EXTT0=
EXTT1=
EXTT2=
EXTT3=
EXTT4=
EXTT5=
EXTT6=
EXTT7=
EXTT8=
EXTT9=
EXTT10=
EXTT11=
PLAYORDER=
